<svg xmlns="http://www.w3.org/2000/svg" xmlns:xlink="http://www.w3.org/1999/xlink" width="500" zoomAndPan="magnify" viewBox="0 0 375 374.999991" height="500" preserveAspectRatio="xMidYMid meet" version="1.0"><defs><g/><clipPath id="b1b2edad57"><path d="M 37.5 150.03125 L 87 150.03125 L 87 225 L 37.5 225 Z M 37.5 150.03125 " clip-rule="nonzero"/></clipPath><clipPath id="06938ebeac"><path d="M 37.5 150.03125 L 87 150.03125 L 87 207 L 37.5 207 Z M 37.5 150.03125 " clip-rule="nonzero"/></clipPath><clipPath id="db24b92086"><path d="M 103 150.03125 L 118.5 150.03125 L 118.5 165 L 103 165 Z M 103 150.03125 " clip-rule="nonzero"/></clipPath><clipPath id="1f7cf6657f"><path d="M 68 151 L 118.5 151 L 118.5 225 L 68 225 Z M 68 151 " clip-rule="nonzero"/></clipPath><clipPath id="b57f4f161e"><path d="M 68 151 L 118.5 151 L 118.5 207 L 68 207 Z M 68 151 " clip-rule="nonzero"/></clipPath></defs><g clip-path="url(#b1b2edad57)"><path fill="#72ffff" d="M 56.765625 153.789062 L 82.800781 179.734375 C 83.328125 180.257812 83.792969 180.828125 84.207031 181.441406 C 84.617188 182.054688 84.964844 182.703125 85.25 183.386719 C 85.53125 184.066406 85.746094 184.769531 85.890625 185.496094 C 86.035156 186.21875 86.109375 186.953125 86.109375 187.691406 C 86.109375 188.429688 86.035156 189.160156 85.890625 189.882812 C 85.746094 190.609375 85.53125 191.3125 85.25 191.996094 C 84.964844 192.675781 84.617188 193.324219 84.207031 193.941406 C 83.792969 194.554688 83.328125 195.121094 82.800781 195.644531 L 56.765625 221.589844 C 49.65625 228.679688 37.496094 223.65625 37.5 213.628906 L 37.5 161.734375 C 37.496094 151.726562 49.65625 146.703125 56.765625 153.789062 Z M 56.765625 153.789062 " fill-opacity="1" fill-rule="nonzero"/></g><g clip-path="url(#06938ebeac)"><path fill="#00d7ff" d="M 56.765625 153.789062 C 49.695312 146.742188 37.671875 151.667969 37.503906 161.566406 C 37.503906 161.566406 78.472656 200.199219 71.960938 206.496094 L 82.824219 195.667969 C 83.347656 195.144531 83.816406 194.578125 84.230469 193.960938 C 84.640625 193.347656 84.988281 192.699219 85.273438 192.019531 C 85.554688 191.335938 85.769531 190.632812 85.914062 189.90625 C 86.058594 189.183594 86.132812 188.453125 86.132812 187.714844 C 86.132812 186.972656 86.058594 186.242188 85.914062 185.519531 C 85.769531 184.792969 85.554688 184.089844 85.273438 183.410156 C 84.988281 182.726562 84.640625 182.078125 84.230469 181.464844 C 83.816406 180.847656 83.347656 180.28125 82.824219 179.757812 Z M 56.765625 153.789062 " fill-opacity="1" fill-rule="nonzero"/></g><g clip-path="url(#db24b92086)"><path fill="#590696" d="M 118.5 157.46875 C 118.5 157.949219 118.453125 158.429688 118.359375 158.902344 C 118.265625 159.375 118.125 159.835938 117.9375 160.28125 C 117.753906 160.726562 117.527344 161.152344 117.257812 161.550781 C 116.988281 161.953125 116.683594 162.324219 116.339844 162.667969 C 115.996094 163.007812 115.625 163.3125 115.222656 163.582031 C 114.820312 163.847656 114.394531 164.074219 113.945312 164.257812 C 113.5 164.445312 113.039062 164.582031 112.5625 164.679688 C 112.085938 164.773438 111.609375 164.820312 111.125 164.820312 C 110.640625 164.820312 110.160156 164.773438 109.683594 164.679688 C 109.210938 164.582031 108.746094 164.445312 108.300781 164.257812 C 107.851562 164.074219 107.425781 163.847656 107.023438 163.582031 C 106.621094 163.3125 106.25 163.007812 105.90625 162.667969 C 105.566406 162.324219 105.257812 161.953125 104.988281 161.550781 C 104.71875 161.152344 104.492188 160.726562 104.308594 160.28125 C 104.121094 159.835938 103.984375 159.375 103.886719 158.902344 C 103.792969 158.429688 103.746094 157.949219 103.746094 157.46875 C 103.746094 156.984375 103.792969 156.507812 103.886719 156.035156 C 103.984375 155.558594 104.121094 155.101562 104.308594 154.65625 C 104.492188 154.207031 104.71875 153.785156 104.988281 153.382812 C 105.257812 152.980469 105.566406 152.609375 105.90625 152.269531 C 106.25 151.929688 106.621094 151.625 107.023438 151.355469 C 107.425781 151.085938 107.851562 150.859375 108.300781 150.675781 C 108.746094 150.492188 109.210938 150.351562 109.683594 150.257812 C 110.160156 150.164062 110.640625 150.117188 111.125 150.117188 C 111.609375 150.117188 112.085938 150.164062 112.5625 150.257812 C 113.039062 150.351562 113.5 150.492188 113.945312 150.675781 C 114.394531 150.859375 114.820312 151.085938 115.222656 151.355469 C 115.625 151.625 115.996094 151.929688 116.339844 152.269531 C 116.683594 152.609375 116.988281 152.980469 117.257812 153.382812 C 117.527344 153.785156 117.753906 154.207031 117.9375 154.65625 C 118.125 155.101562 118.265625 155.558594 118.359375 156.035156 C 118.453125 156.507812 118.5 156.984375 118.5 157.46875 Z M 118.5 157.46875 " fill-opacity="1" fill-rule="nonzero"/><path fill="#590696" d="M 118.5 157.46875 C 118.5 157.949219 118.453125 158.429688 118.359375 158.902344 C 118.265625 159.375 118.125 159.835938 117.9375 160.28125 C 117.753906 160.726562 117.527344 161.152344 117.257812 161.550781 C 116.988281 161.953125 116.683594 162.324219 116.339844 162.667969 C 115.996094 163.007812 115.625 163.3125 115.222656 163.582031 C 114.820312 163.847656 114.394531 164.074219 113.945312 164.257812 C 113.5 164.445312 113.039062 164.582031 112.5625 164.679688 C 112.085938 164.773438 111.609375 164.820312 111.125 164.820312 C 110.640625 164.820312 110.160156 164.773438 109.683594 164.679688 C 109.210938 164.582031 108.746094 164.445312 108.300781 164.257812 C 107.851562 164.074219 107.425781 163.847656 107.023438 163.582031 C 106.621094 163.3125 106.25 163.007812 105.90625 162.667969 C 105.566406 162.324219 105.257812 161.953125 104.988281 161.550781 C 104.71875 161.152344 104.492188 160.726562 104.308594 160.28125 C 104.121094 159.835938 103.984375 159.375 103.886719 158.902344 C 103.792969 158.429688 103.746094 157.949219 103.746094 157.46875 C 103.746094 156.984375 103.792969 156.507812 103.886719 156.035156 C 103.984375 155.558594 104.121094 155.101562 104.308594 154.65625 C 104.492188 154.207031 104.71875 153.785156 104.988281 153.382812 C 105.257812 152.980469 105.566406 152.609375 105.90625 152.269531 C 106.25 151.929688 106.621094 151.625 107.023438 151.355469 C 107.425781 151.085938 107.851562 150.859375 108.300781 150.675781 C 108.746094 150.492188 109.210938 150.351562 109.683594 150.257812 C 110.160156 150.164062 110.640625 150.117188 111.125 150.117188 C 111.609375 150.117188 112.085938 150.164062 112.5625 150.257812 C 113.039062 150.351562 113.5 150.492188 113.945312 150.675781 C 114.394531 150.859375 114.820312 151.085938 115.222656 151.355469 C 115.625 151.625 115.996094 151.929688 116.339844 152.269531 C 116.683594 152.609375 116.988281 152.980469 117.257812 153.382812 C 117.527344 153.785156 117.753906 154.207031 117.9375 154.65625 C 118.125 155.101562 118.265625 155.558594 118.359375 156.035156 C 118.453125 156.507812 118.5 156.984375 118.5 157.46875 Z M 118.5 157.46875 " fill-opacity="1" fill-rule="nonzero"/></g><g clip-path="url(#1f7cf6657f)"><path fill="#0096ff" d="M 115.191406 179.800781 L 89.15625 153.851562 C 82.164062 146.882812 63.535156 154.964844 69.910156 161.320312 L 88.632812 179.984375 C 89.160156 180.503906 89.625 181.074219 90.039062 181.6875 C 90.449219 182.300781 90.796875 182.949219 91.082031 183.632812 C 91.367188 184.3125 91.582031 185.015625 91.726562 185.742188 C 91.871094 186.464844 91.941406 187.195312 91.941406 187.933594 C 91.941406 188.671875 91.871094 189.40625 91.726562 190.128906 C 91.582031 190.855469 91.367188 191.558594 91.082031 192.238281 C 90.796875 192.921875 90.449219 193.570312 90.039062 194.183594 C 89.625 194.796875 89.160156 195.363281 88.632812 195.886719 L 69.921875 214.539062 C 64.21875 220.21875 82.234375 228.597656 89.15625 221.699219 L 115.191406 195.753906 C 115.71875 195.230469 116.1875 194.660156 116.605469 194.046875 C 117.019531 193.429688 117.367188 192.78125 117.652344 192.097656 C 117.941406 191.410156 118.15625 190.707031 118.300781 189.980469 C 118.445312 189.253906 118.519531 188.519531 118.519531 187.777344 C 118.519531 187.035156 118.445312 186.300781 118.300781 185.574219 C 118.15625 184.847656 117.941406 184.140625 117.652344 183.457031 C 117.367188 182.773438 117.019531 182.121094 116.605469 181.507812 C 116.1875 180.890625 115.71875 180.320312 115.191406 179.800781 Z M 115.191406 179.800781 " fill-opacity="1" fill-rule="nonzero"/></g><g clip-path="url(#b57f4f161e)"><path fill="#5800ff" d="M 115.191406 179.800781 L 89.15625 153.851562 C 82.164062 146.882812 63.535156 154.964844 69.910156 161.320312 L 88.632812 179.984375 C 89.539062 180.882812 90.265625 181.90625 90.820312 183.054688 C 91.375 184.199219 91.722656 185.40625 91.863281 186.671875 C 98.3125 194.21875 103.675781 201.546875 104.792969 206.117188 L 115.207031 195.738281 C 115.734375 195.214844 116.203125 194.644531 116.617188 194.027344 C 117.027344 193.414062 117.378906 192.761719 117.660156 192.078125 C 117.945312 191.394531 118.160156 190.691406 118.304688 189.964844 C 118.449219 189.238281 118.519531 188.503906 118.519531 187.765625 C 118.519531 187.023438 118.445312 186.289062 118.300781 185.566406 C 118.152344 184.839844 117.9375 184.132812 117.652344 183.449219 C 117.367188 182.769531 117.015625 182.117188 116.601562 181.503906 C 116.1875 180.890625 115.71875 180.320312 115.191406 179.800781 Z M 115.191406 179.800781 " fill-opacity="1" fill-rule="nonzero"/></g><g fill="#231f20" fill-opacity="1"><g transform="translate(129.368799, 200.525382)"><g><path d="M 20.230469 0.75 C 31.714844 0.75 38.320312 -7.378906 38.242188 -18.890625 L 19.921875 -18.890625 L 19.921875 -13.523438 L 31.277344 -13.523438 C 30.296875 -8.617188 26.449219 -5.160156 20.179688 -5.160156 C 13.546875 -5.160156 8.128906 -9.960938 8.128906 -17.574219 C 8.128906 -25.058594 13.546875 -30.039062 20.179688 -30.039062 C 25.160156 -30.039062 29.082031 -27.613281 30.914062 -23.507812 L 37.445312 -23.507812 C 35.792969 -31.40625 27.765625 -35.921875 20.335938 -35.921875 C 10.011719 -35.921875 1.730469 -27.792969 1.730469 -17.574219 C 1.730469 -7.433594 10.011719 0.75 20.230469 0.75 Z M 20.230469 0.75 "/></g></g></g><g fill="#231f20" fill-opacity="1"><g transform="translate(169.337915, 200.525382)"><g><path d="M 26.449219 0 L 26.449219 -5.753906 L 10.605469 -5.753906 L 10.605469 -35.09375 L 4.179688 -35.09375 L 4.179688 0 Z M 26.449219 0 "/></g></g></g><g fill="#231f20" fill-opacity="1"><g transform="translate(196.818295, 200.525382)"><g><path d="M 20.617188 0.75 C 31.070312 0.75 39.558594 -7.40625 39.558594 -17.597656 C 39.558594 -27.792969 31.070312 -35.921875 20.617188 -35.921875 C 10.167969 -35.921875 1.703125 -27.792969 1.703125 -17.597656 C 1.703125 -7.40625 10.167969 0.75 20.617188 0.75 Z M 20.617188 -5.160156 C 13.726562 -5.160156 8.128906 -10.449219 8.128906 -17.574219 C 8.128906 -24.722656 13.703125 -30.039062 20.617188 -30.039062 C 27.558594 -30.039062 33.160156 -24.746094 33.160156 -17.574219 C 33.160156 -10.449219 27.558594 -5.160156 20.617188 -5.160156 Z M 20.617188 -5.160156 "/></g></g></g><g fill="#231f20" fill-opacity="1"><g transform="translate(238.07757, 200.525382)"><g><path d="M 20.953125 0 C 26.605469 0 32.179688 -3.25 32.179688 -10.191406 C 32.179688 -14.140625 29.261719 -17.445312 25.726562 -18.578125 C 28.152344 -19.613281 30.167969 -22.503906 30.167969 -25.597656 C 30.167969 -31.457031 25.855469 -35.09375 19.484375 -35.09375 L 4.179688 -35.09375 L 4.179688 0 Z M 10.65625 -29.574219 L 19.199219 -29.574219 C 21.753906 -29.574219 23.6875 -27.613281 23.6875 -25.03125 C 23.6875 -22.425781 21.753906 -20.4375 19.171875 -20.4375 L 10.65625 -20.4375 Z M 10.65625 -15.613281 L 20.4375 -15.613281 C 23.378906 -15.613281 25.597656 -13.394531 25.597656 -10.683594 C 25.597656 -7.664062 23.378906 -5.546875 20.386719 -5.546875 L 10.65625 -5.546875 Z M 10.65625 -15.613281 "/></g></g></g><g fill="#231f20" fill-opacity="1"><g transform="translate(271.905532, 200.525382)"><g><path d="M 35.535156 0 L 20.929688 -35.121094 L 14.839844 -35.121094 L 0.230469 0 L 7.019531 0 L 9.804688 -6.785156 L 25.960938 -6.785156 L 28.746094 0 Z M 17.652344 -25.984375 L 17.855469 -26.835938 L 17.933594 -26.835938 L 18.089844 -25.984375 L 23.765625 -12.152344 L 12 -12.152344 Z M 17.652344 -25.984375 "/></g></g></g><g fill="#231f20" fill-opacity="1"><g transform="translate(307.694534, 200.525382)"><g><path d="M 26.449219 0 L 26.449219 -5.753906 L 10.605469 -5.753906 L 10.605469 -35.09375 L 4.179688 -35.09375 L 4.179688 0 Z M 26.449219 0 "/></g></g></g></svg>