<svg xmlns="http://www.w3.org/2000/svg" xmlns:xlink="http://www.w3.org/1999/xlink" width="500" zoomAndPan="magnify" viewBox="0 0 375 374.999991" height="500" preserveAspectRatio="xMidYMid meet" version="1.0"><defs><g/></defs><g fill="#000000" fill-opacity="1"><g transform="translate(115.998147, 180.85134)"><g><path d="M 19.53125 -58.097656 L 54.410156 -58.097656 L 54.410156 -69.757812 L 7.871094 -69.757812 L 7.871094 0 L 54.410156 0 L 54.410156 -11.660156 L 19.53125 -11.660156 L 19.53125 -29.097656 L 48.53125 -29.097656 L 48.53125 -40.660156 L 19.53125 -40.660156 Z M 19.53125 -58.097656 "/></g></g></g><g fill="#000000" fill-opacity="1"><g transform="translate(170.603038, 180.85134)"><g><path d="M 40.457031 -10.664062 C 27.605469 -10.664062 17.339844 -19.929688 17.339844 -34.878906 C 17.339844 -48.929688 26.109375 -59.09375 40.457031 -59.09375 C 46.835938 -59.09375 52.714844 -56.503906 56.902344 -52.316406 L 65.074219 -60.488281 C 58.796875 -66.867188 50.125 -70.753906 40.457031 -70.753906 C 20.03125 -70.753906 5.480469 -55.90625 5.480469 -34.878906 C 5.480469 -12.953125 21.226562 0.996094 40.457031 0.996094 C 50.125 0.996094 58.796875 -2.890625 65.074219 -9.167969 L 56.902344 -17.4375 C 52.714844 -13.253906 46.835938 -10.664062 40.457031 -10.664062 Z M 40.457031 -10.664062 "/></g></g></g><g fill="#000000" fill-opacity="1"><g transform="translate(111.111428, 260.351335)"><g><path d="M 65.96875 0 L 65.96875 -69.757812 L 54.410156 -69.757812 L 54.410156 -20.128906 L 19.632812 -69.757812 L 7.871094 -69.757812 L 7.871094 0 L 19.53125 0 L 19.53125 -49.625 L 54.210938 0 Z M 65.96875 0 "/></g></g></g><g fill="#000000" fill-opacity="1"><g transform="translate(181.061587, 260.351335)"><g><path d="M 31.589844 -18.933594 C 45.839844 -18.933594 57.5 -30.59375 57.5 -44.84375 C 57.5 -59.09375 45.839844 -70.753906 31.589844 -70.753906 C 17.339844 -70.753906 5.679688 -59.09375 5.679688 -44.84375 C 5.679688 -30.59375 17.339844 -18.933594 31.589844 -18.933594 Z M 31.589844 -59.195312 C 39.5625 -59.195312 45.941406 -52.816406 45.941406 -44.84375 C 45.941406 -36.871094 39.5625 -30.492188 31.589844 -30.492188 C 23.617188 -30.492188 17.238281 -36.871094 17.238281 -44.84375 C 17.238281 -52.816406 23.617188 -59.195312 31.589844 -59.195312 Z M 54.3125 0 L 54.3125 -11.558594 L 8.269531 -11.558594 L 8.269531 0 Z M 54.3125 0 "/></g></g></g><g fill="#000000" fill-opacity="1"><g transform="translate(247.380223, 108.836522)"><g><path d="M 4.15625 2.5625 L 12.53125 0.078125 L 12.53125 2.125 L 6.8125 3.625 L 12.53125 5.140625 L 12.53125 7.015625 L 4.15625 4.53125 L 0 4.53125 L 0 2.5625 Z M 4.15625 2.5625 "/></g></g></g><g fill="#000000" fill-opacity="1"><g transform="translate(247.380223, 116.580124)"><g><path d="M 2.875 2.515625 C 2.425781 2.515625 2.109375 2.609375 1.921875 2.796875 C 1.734375 2.984375 1.640625 3.234375 1.640625 3.546875 C 1.640625 3.847656 1.734375 4.09375 1.921875 4.28125 C 2.109375 4.46875 2.425781 4.5625 2.875 4.5625 L 9.640625 4.5625 C 10.097656 4.5625 10.414062 4.46875 10.59375 4.28125 C 10.78125 4.09375 10.875 3.847656 10.875 3.546875 C 10.875 3.234375 10.78125 2.984375 10.59375 2.796875 C 10.414062 2.609375 10.097656 2.515625 9.640625 2.515625 Z M 9.515625 0.546875 C 10.523438 0.546875 11.300781 0.800781 11.84375 1.3125 C 12.394531 1.832031 12.671875 2.578125 12.671875 3.546875 C 12.671875 4.503906 12.394531 5.238281 11.84375 5.75 C 11.300781 6.269531 10.523438 6.53125 9.515625 6.53125 L 3 6.53125 C 1.988281 6.53125 1.210938 6.269531 0.671875 5.75 C 0.128906 5.238281 -0.140625 4.503906 -0.140625 3.546875 C -0.140625 2.578125 0.128906 1.832031 0.671875 1.3125 C 1.210938 0.800781 1.988281 0.546875 3 0.546875 Z M 9.515625 0.546875 "/></g></g></g><g fill="#000000" fill-opacity="1"><g transform="translate(247.380223, 124.323726)"><g><path d="M 12.53125 2.59375 L 2.859375 2.59375 C 2.410156 2.59375 2.09375 2.6875 1.90625 2.875 C 1.726562 3.0625 1.640625 3.304688 1.640625 3.609375 C 1.640625 3.921875 1.726562 4.171875 1.90625 4.359375 C 2.09375 4.546875 2.410156 4.640625 2.859375 4.640625 L 12.53125 4.640625 L 12.53125 6.5 L 2.984375 6.5 C 1.972656 6.5 1.195312 6.25 0.65625 5.75 C 0.113281 5.257812 -0.15625 4.53125 -0.15625 3.5625 C -0.15625 2.59375 0.113281 1.859375 0.65625 1.359375 C 1.195312 0.867188 1.972656 0.625 2.984375 0.625 L 12.53125 0.625 Z M 12.53125 2.59375 "/></g></g></g><g fill="#000000" fill-opacity="1"><g transform="translate(247.380223, 132.103091)"><g><path d="M 0 4.828125 C 0.0820312 4.804688 0.160156 4.78125 0.234375 4.75 C 0.304688 4.726562 0.394531 4.707031 0.5 4.6875 C 0.601562 4.675781 0.738281 4.664062 0.90625 4.65625 C 1.070312 4.65625 1.28125 4.65625 1.53125 4.65625 L 3.5 4.65625 C 4.09375 4.65625 4.503906 4.550781 4.734375 4.34375 C 4.972656 4.144531 5.09375 3.816406 5.09375 3.359375 L 5.09375 2.6875 L 0 2.6875 L 0 0.71875 L 12.53125 0.71875 L 12.53125 3.6875 C 12.53125 4.707031 12.289062 5.445312 11.8125 5.90625 C 11.332031 6.375 10.609375 6.609375 9.640625 6.609375 L 8.65625 6.609375 C 7.375 6.609375 6.53125 6.175781 6.125 5.3125 C 5.914062 5.8125 5.582031 6.15625 5.125 6.34375 C 4.664062 6.53125 4.109375 6.625 3.453125 6.625 L 1.515625 6.625 C 1.210938 6.625 0.941406 6.632812 0.703125 6.65625 C 0.472656 6.675781 0.238281 6.734375 0 6.828125 Z M 10.734375 2.6875 L 6.890625 2.6875 L 6.890625 3.453125 C 6.890625 3.816406 6.984375 4.101562 7.171875 4.3125 C 7.359375 4.53125 7.707031 4.640625 8.21875 4.640625 L 9.453125 4.640625 C 9.898438 4.640625 10.222656 4.554688 10.421875 4.390625 C 10.628906 4.234375 10.734375 3.976562 10.734375 3.625 Z M 10.734375 2.6875 "/></g></g></g><g fill="#000000" fill-opacity="1"><g transform="translate(247.380223, 139.953981)"><g/></g></g><g fill="#000000" fill-opacity="1"><g transform="translate(247.380223, 143.387818)"><g><path d="M 0 4.828125 C 0.0820312 4.804688 0.160156 4.78125 0.234375 4.75 C 0.304688 4.726562 0.394531 4.707031 0.5 4.6875 C 0.601562 4.675781 0.738281 4.664062 0.90625 4.65625 C 1.070312 4.65625 1.28125 4.65625 1.53125 4.65625 L 3.5 4.65625 C 4.09375 4.65625 4.503906 4.550781 4.734375 4.34375 C 4.972656 4.144531 5.09375 3.816406 5.09375 3.359375 L 5.09375 2.6875 L 0 2.6875 L 0 0.71875 L 12.53125 0.71875 L 12.53125 3.6875 C 12.53125 4.707031 12.289062 5.445312 11.8125 5.90625 C 11.332031 6.375 10.609375 6.609375 9.640625 6.609375 L 8.65625 6.609375 C 7.375 6.609375 6.53125 6.175781 6.125 5.3125 C 5.914062 5.8125 5.582031 6.15625 5.125 6.34375 C 4.664062 6.53125 4.109375 6.625 3.453125 6.625 L 1.515625 6.625 C 1.210938 6.625 0.941406 6.632812 0.703125 6.65625 C 0.472656 6.675781 0.238281 6.734375 0 6.828125 Z M 10.734375 2.6875 L 6.890625 2.6875 L 6.890625 3.453125 C 6.890625 3.816406 6.984375 4.101562 7.171875 4.3125 C 7.359375 4.53125 7.707031 4.640625 8.21875 4.640625 L 9.453125 4.640625 C 9.898438 4.640625 10.222656 4.554688 10.421875 4.390625 C 10.628906 4.234375 10.734375 3.976562 10.734375 3.625 Z M 10.734375 2.6875 "/></g></g></g><g fill="#000000" fill-opacity="1"><g transform="translate(247.380223, 151.238707)"><g><path d="M 7.25 2.6875 L 7.25 5.390625 L 5.453125 5.390625 L 5.453125 2.6875 L 1.796875 2.6875 L 1.796875 6.078125 L 0 6.078125 L 0 0.71875 L 12.53125 0.71875 L 12.53125 6.078125 L 10.734375 6.078125 L 10.734375 2.6875 Z M 7.25 2.6875 "/></g></g></g><g fill="#000000" fill-opacity="1"><g transform="translate(247.380223, 158.481584)"><g><path d="M 12.53125 0.71875 L 12.53125 2.6875 L 1.796875 2.6875 L 1.796875 5.921875 L 0 5.921875 L 0 0.71875 Z M 12.53125 0.71875 "/></g></g></g><g fill="#000000" fill-opacity="1"><g transform="translate(247.380223, 165.241626)"><g><path d="M 12.53125 0.71875 L 12.53125 2.6875 L 0 2.6875 L 0 0.71875 Z M 12.53125 0.71875 "/></g></g></g><g fill="#000000" fill-opacity="1"><g transform="translate(247.380223, 169.301365)"><g><path d="M 0 7.078125 L 0 5.09375 L 2.265625 4.765625 L 2.265625 2.34375 L 0 2 L 0 0.203125 L 12.53125 2.203125 L 12.53125 5.078125 Z M 3.96875 2.59375 L 3.96875 4.484375 L 10.3125 3.546875 Z M 3.96875 2.59375 "/></g></g></g><g fill="#000000" fill-opacity="1"><g transform="translate(247.380223, 177.241671)"><g><path d="M 12.53125 3.6875 C 12.53125 4.707031 12.289062 5.445312 11.8125 5.90625 C 11.332031 6.375 10.609375 6.609375 9.640625 6.609375 L 9.203125 6.609375 C 8.554688 6.609375 8.023438 6.503906 7.609375 6.296875 C 7.191406 6.097656 6.878906 5.773438 6.671875 5.328125 C 6.472656 5.867188 6.140625 6.25 5.671875 6.46875 C 5.210938 6.6875 4.648438 6.796875 3.984375 6.796875 L 2.96875 6.796875 C 2 6.796875 1.257812 6.546875 0.75 6.046875 C 0.25 5.546875 0 4.800781 0 3.8125 L 0 0.71875 L 12.53125 0.71875 Z M 5.640625 2.6875 L 1.796875 2.6875 L 1.796875 3.8125 C 1.796875 4.144531 1.882812 4.394531 2.0625 4.5625 C 2.238281 4.738281 2.5625 4.828125 3.03125 4.828125 L 4.109375 4.828125 C 4.691406 4.828125 5.09375 4.726562 5.3125 4.53125 C 5.53125 4.332031 5.640625 4.007812 5.640625 3.5625 Z M 10.734375 2.6875 L 7.421875 2.6875 L 7.421875 3.453125 C 7.421875 3.816406 7.515625 4.101562 7.703125 4.3125 C 7.898438 4.53125 8.25 4.640625 8.75 4.640625 L 9.453125 4.640625 C 9.898438 4.640625 10.222656 4.554688 10.421875 4.390625 C 10.628906 4.234375 10.734375 3.976562 10.734375 3.625 Z M 10.734375 2.6875 "/></g></g></g><g fill="#000000" fill-opacity="1"><g transform="translate(247.380223, 185.1641)"><g><path d="M 12.53125 0.71875 L 12.53125 2.6875 L 1.796875 2.6875 L 1.796875 5.921875 L 0 5.921875 L 0 0.71875 Z M 12.53125 0.71875 "/></g></g></g><g fill="#000000" fill-opacity="1"><g transform="translate(247.380223, 191.924142)"><g><path d="M 7.25 2.6875 L 7.25 5.390625 L 5.453125 5.390625 L 5.453125 2.6875 L 1.796875 2.6875 L 1.796875 6.078125 L 0 6.078125 L 0 0.71875 L 12.53125 0.71875 L 12.53125 6.078125 L 10.734375 6.078125 L 10.734375 2.6875 Z M 7.25 2.6875 "/></g></g></g><g fill="#000000" fill-opacity="1"><g transform="translate(247.380223, 199.164641)"><g/></g></g><g fill="#000000" fill-opacity="1"><g transform="translate(247.380223, 202.598478)"><g/></g></g><g fill="#000000" fill-opacity="1"><g transform="translate(247.380223, 206.031828)"><g><path d="M 9.515625 0.46875 C 10.523438 0.46875 11.300781 0.707031 11.84375 1.1875 C 12.394531 1.675781 12.671875 2.398438 12.671875 3.359375 C 12.671875 4.328125 12.394531 5.050781 11.84375 5.53125 C 11.300781 6.019531 10.523438 6.265625 9.515625 6.265625 L 9.03125 6.265625 L 9.03125 4.40625 L 9.640625 4.40625 C 10.097656 4.40625 10.414062 4.316406 10.59375 4.140625 C 10.78125 3.960938 10.875 3.722656 10.875 3.421875 C 10.875 3.109375 10.78125 2.863281 10.59375 2.6875 C 10.414062 2.519531 10.097656 2.4375 9.640625 2.4375 C 9.210938 2.4375 8.832031 2.53125 8.5 2.71875 C 8.175781 2.90625 7.867188 3.140625 7.578125 3.421875 C 7.285156 3.710938 6.992188 4.019531 6.703125 4.34375 C 6.410156 4.675781 6.085938 4.984375 5.734375 5.265625 C 5.390625 5.554688 5 5.796875 4.5625 5.984375 C 4.125 6.179688 3.601562 6.28125 3 6.28125 C 1.988281 6.28125 1.210938 6.03125 0.671875 5.53125 C 0.128906 5.039062 -0.140625 4.3125 -0.140625 3.34375 C -0.140625 2.375 0.128906 1.640625 0.671875 1.140625 C 1.210938 0.648438 1.988281 0.40625 3 0.40625 L 3.859375 0.40625 L 3.859375 2.265625 L 2.875 2.265625 C 2.425781 2.265625 2.109375 2.359375 1.921875 2.546875 C 1.742188 2.734375 1.65625 2.984375 1.65625 3.296875 C 1.65625 3.597656 1.742188 3.84375 1.921875 4.03125 C 2.109375 4.21875 2.425781 4.3125 2.875 4.3125 C 3.3125 4.3125 3.691406 4.210938 4.015625 4.015625 C 4.347656 3.828125 4.660156 3.585938 4.953125 3.296875 C 5.242188 3.015625 5.535156 2.707031 5.828125 2.375 C 6.117188 2.050781 6.4375 1.742188 6.78125 1.453125 C 7.125 1.171875 7.515625 0.9375 7.953125 0.75 C 8.398438 0.5625 8.921875 0.46875 9.515625 0.46875 Z M 9.515625 0.46875 "/></g></g></g><g fill="#000000" fill-opacity="1"><g transform="translate(247.380223, 213.382005)"><g><path d="M 12.53125 2.59375 L 2.859375 2.59375 C 2.410156 2.59375 2.09375 2.6875 1.90625 2.875 C 1.726562 3.0625 1.640625 3.304688 1.640625 3.609375 C 1.640625 3.921875 1.726562 4.171875 1.90625 4.359375 C 2.09375 4.546875 2.410156 4.640625 2.859375 4.640625 L 12.53125 4.640625 L 12.53125 6.5 L 2.984375 6.5 C 1.972656 6.5 1.195312 6.25 0.65625 5.75 C 0.113281 5.257812 -0.15625 4.53125 -0.15625 3.5625 C -0.15625 2.59375 0.113281 1.859375 0.65625 1.359375 C 1.195312 0.867188 1.972656 0.625 2.984375 0.625 L 12.53125 0.625 Z M 12.53125 2.59375 "/></g></g></g><g fill="#000000" fill-opacity="1"><g transform="translate(247.380223, 221.16137)"><g><path d="M 12.53125 3.609375 C 12.53125 4.597656 12.265625 5.332031 11.734375 5.8125 C 11.210938 6.300781 10.441406 6.546875 9.421875 6.546875 L 7.796875 6.546875 C 6.785156 6.546875 6.015625 6.300781 5.484375 5.8125 C 4.960938 5.332031 4.703125 4.597656 4.703125 3.609375 L 4.703125 2.6875 L 0 2.6875 L 0 0.71875 L 12.53125 0.71875 Z M 10.734375 2.6875 L 6.5 2.6875 L 6.5 3.609375 C 6.5 3.921875 6.582031 4.160156 6.75 4.328125 C 6.914062 4.492188 7.222656 4.578125 7.671875 4.578125 L 9.546875 4.578125 C 10.003906 4.578125 10.316406 4.492188 10.484375 4.328125 C 10.648438 4.160156 10.734375 3.921875 10.734375 3.609375 Z M 10.734375 2.6875 "/></g></g></g><g fill="#000000" fill-opacity="1"><g transform="translate(247.380223, 228.565198)"><g><path d="M 12.53125 3.609375 C 12.53125 4.597656 12.265625 5.332031 11.734375 5.8125 C 11.210938 6.300781 10.441406 6.546875 9.421875 6.546875 L 7.796875 6.546875 C 6.785156 6.546875 6.015625 6.300781 5.484375 5.8125 C 4.960938 5.332031 4.703125 4.597656 4.703125 3.609375 L 4.703125 2.6875 L 0 2.6875 L 0 0.71875 L 12.53125 0.71875 Z M 10.734375 2.6875 L 6.5 2.6875 L 6.5 3.609375 C 6.5 3.921875 6.582031 4.160156 6.75 4.328125 C 6.914062 4.492188 7.222656 4.578125 7.671875 4.578125 L 9.546875 4.578125 C 10.003906 4.578125 10.316406 4.492188 10.484375 4.328125 C 10.648438 4.160156 10.734375 3.921875 10.734375 3.609375 Z M 10.734375 2.6875 "/></g></g></g><g fill="#000000" fill-opacity="1"><g transform="translate(247.380223, 235.969024)"><g><path d="M 12.53125 0.71875 L 12.53125 2.6875 L 1.796875 2.6875 L 1.796875 5.921875 L 0 5.921875 L 0 0.71875 Z M 12.53125 0.71875 "/></g></g></g><g fill="#000000" fill-opacity="1"><g transform="translate(247.380223, 242.729063)"><g><path d="M 12.53125 0.71875 L 12.53125 2.6875 L 0 2.6875 L 0 0.71875 Z M 12.53125 0.71875 "/></g></g></g><g fill="#000000" fill-opacity="1"><g transform="translate(247.380223, 246.7888)"><g><path d="M 7.25 2.6875 L 7.25 5.390625 L 5.453125 5.390625 L 5.453125 2.6875 L 1.796875 2.6875 L 1.796875 6.078125 L 0 6.078125 L 0 0.71875 L 12.53125 0.71875 L 12.53125 6.078125 L 10.734375 6.078125 L 10.734375 2.6875 Z M 7.25 2.6875 "/></g></g></g><g fill="#000000" fill-opacity="1"><g transform="translate(247.380223, 254.031676)"><g><path d="M 0 4.828125 C 0.0820312 4.804688 0.160156 4.78125 0.234375 4.75 C 0.304688 4.726562 0.394531 4.707031 0.5 4.6875 C 0.601562 4.675781 0.738281 4.664062 0.90625 4.65625 C 1.070312 4.65625 1.28125 4.65625 1.53125 4.65625 L 3.5 4.65625 C 4.09375 4.65625 4.503906 4.550781 4.734375 4.34375 C 4.972656 4.144531 5.09375 3.816406 5.09375 3.359375 L 5.09375 2.6875 L 0 2.6875 L 0 0.71875 L 12.53125 0.71875 L 12.53125 3.6875 C 12.53125 4.707031 12.289062 5.445312 11.8125 5.90625 C 11.332031 6.375 10.609375 6.609375 9.640625 6.609375 L 8.65625 6.609375 C 7.375 6.609375 6.53125 6.175781 6.125 5.3125 C 5.914062 5.8125 5.582031 6.15625 5.125 6.34375 C 4.664062 6.53125 4.109375 6.625 3.453125 6.625 L 1.515625 6.625 C 1.210938 6.625 0.941406 6.632812 0.703125 6.65625 C 0.472656 6.675781 0.238281 6.734375 0 6.828125 Z M 10.734375 2.6875 L 6.890625 2.6875 L 6.890625 3.453125 C 6.890625 3.816406 6.984375 4.101562 7.171875 4.3125 C 7.359375 4.53125 7.707031 4.640625 8.21875 4.640625 L 9.453125 4.640625 C 9.898438 4.640625 10.222656 4.554688 10.421875 4.390625 C 10.628906 4.234375 10.734375 3.976562 10.734375 3.625 Z M 10.734375 2.6875 "/></g></g></g></svg>